<svg width="34" height="34" viewBox="0 0 34 34" fill="none" xmlns="http://www.w3.org/2000/svg">
<mask id="path-1-inside-1_1_2279" fill="white">
<path d="M0 9C0 4.02944 4.02944 0 9 0H25C29.9706 0 34 4.02944 34 9V24.5072C34 29.4778 29.9706 33.5072 25 33.5072H9C4.02944 33.5072 0 29.4778 0 24.5072V9Z"/>
</mask>
<path d="M9 0V1H25V0V-1H9V0ZM34 9H33V24.5072H34H35V9H34ZM25 33.5072V32.5072H9V33.5072V34.5072H25V33.5072ZM0 24.5072H1V9H0H-1V24.5072H0ZM9 33.5072V32.5072C4.58172 32.5072 1 28.9255 1 24.5072H0H-1C-1 30.0301 3.47715 34.5072 9 34.5072V33.5072ZM34 24.5072H33C33 28.9255 29.4183 32.5072 25 32.5072V33.5072V34.5072C30.5228 34.5072 35 30.0301 35 24.5072H34ZM25 0V1C29.4183 1 33 4.58172 33 9H34H35C35 3.47715 30.5228 -1 25 -1V0ZM9 0V-1C3.47715 -1 -1 3.47715 -1 9H0H1C1 4.58172 4.58172 1 9 1V0Z" fill="#D8E2F8" mask="url(#path-1-inside-1_1_2279)"/>
<path d="M19.8337 22.2222H14.167V23.1666C14.167 24.7314 15.4355 25.9999 17.0003 25.9999C18.5651 25.9999 19.8337 24.7314 19.8337 23.1666V22.2222Z" fill="#B1B7C1" stroke="white" stroke-linecap="round" stroke-linejoin="round"/>
<path d="M10.3888 22.2221H23.611C24.1326 22.2221 24.5554 21.7993 24.5554 21.2777V20.7244C24.5554 20.4739 24.4559 20.2337 24.2788 20.0566L23.7964 19.5741C23.6777 19.4554 23.611 19.2944 23.611 19.1266V15.611C23.611 11.9598 20.6511 8.99987 16.9999 8.99988C13.3487 8.99989 10.3888 11.9598 10.3888 15.611V19.1266C10.3888 19.2945 10.3221 19.4555 10.2034 19.5742L9.72096 20.0566C9.54384 20.2337 9.44434 20.4739 9.44434 20.7244V21.2777C9.44434 21.7993 9.86718 22.2221 10.3888 22.2221Z" fill="#B1B7C1" stroke="white" stroke-linecap="round" stroke-linejoin="round"/>
<mask id="path-5-inside-2_1_2279" fill="white">
<path d="M20 10.9444C20 9.22614 21.3929 7.83325 23.1111 7.83325C24.8293 7.83325 26.2222 9.22614 26.2222 10.9444C26.2222 12.6626 24.8293 14.0555 23.1111 14.0555C21.3929 14.0555 20 12.6626 20 10.9444Z"/>
</mask>
<path d="M20 10.9444C20 9.22614 21.3929 7.83325 23.1111 7.83325C24.8293 7.83325 26.2222 9.22614 26.2222 10.9444C26.2222 12.6626 24.8293 14.0555 23.1111 14.0555C21.3929 14.0555 20 12.6626 20 10.9444Z" fill="#DC2626"/>
<path d="M20 10.9444M26.2222 10.9444M26.2222 10.9444M20 10.9444M23.1111 7.83325M26.2222 10.9444M23.1111 14.0555M20 10.9444M23.1111 14.0555V13.0555C21.9452 13.0555 21 12.1103 21 10.9444H20H19C19 13.2149 20.8406 15.0555 23.1111 15.0555V14.0555ZM26.2222 10.9444H25.2222C25.2222 12.1103 24.277 13.0555 23.1111 13.0555V14.0555V15.0555C25.3816 15.0555 27.2222 13.2149 27.2222 10.9444H26.2222ZM23.1111 7.83325V8.83325C24.277 8.83325 25.2222 9.77843 25.2222 10.9444H26.2222H27.2222C27.2222 8.67386 25.3816 6.83325 23.1111 6.83325V7.83325ZM23.1111 7.83325V6.83325C20.8406 6.83325 19 8.67386 19 10.9444H20H21C21 9.77843 21.9452 8.83325 23.1111 8.83325V7.83325Z" fill="white" mask="url(#path-5-inside-2_1_2279)"/>
</svg>
