<svg width="23" height="23" viewBox="0 0 23 23" fill="none" xmlns="http://www.w3.org/2000/svg">
<path d="M14.1667 16.0547H8.5V16.9991C8.5 18.5639 9.76853 19.8325 11.3333 19.8325C12.8981 19.8325 14.1667 18.5639 14.1667 16.9991V16.0547Z" fill="#B1B7C1" stroke="#F3F4F6" stroke-linecap="round" stroke-linejoin="round"/>
<path d="M4.72179 16.0562H17.944C18.4656 16.0562 18.8885 15.6334 18.8885 15.1118V14.5585C18.8885 14.308 18.789 14.0678 18.6118 13.8907L18.1294 13.4082C18.0107 13.2895 17.944 13.1286 17.944 12.9607V9.4451C17.944 5.79387 14.9841 2.83398 11.3329 2.83398C7.68167 2.83399 4.72179 5.79389 4.72179 9.4451V12.9607C4.72179 13.1286 4.65511 13.2896 4.53641 13.4083L4.05397 13.8907C3.87685 14.0678 3.77734 14.3081 3.77734 14.5585V15.1118C3.77734 15.6334 4.20019 16.0562 4.72179 16.0562Z" fill="#B1B7C1" stroke="#F3F4F6" stroke-linecap="round" stroke-linejoin="round"/>
</svg>
