<svg width="34" height="34" viewBox="0 0 34 34" fill="none" xmlns="http://www.w3.org/2000/svg">
<mask id="path-1-inside-1_1_4412" fill="white">
<path d="M0 9C0 4.02944 4.02944 0 9 0H25C29.9706 0 34 4.02944 34 9V24.5072C34 29.4778 29.9706 33.5072 25 33.5072H9C4.02944 33.5072 0 29.4778 0 24.5072V9Z"/>
</mask>
<path d="M9 0V1H25V0V-1H9V0ZM34 9H33V24.5072H34H35V9H34ZM25 33.5072V32.5072H9V33.5072V34.5072H25V33.5072ZM0 24.5072H1V9H0H-1V24.5072H0ZM9 33.5072V32.5072C4.58172 32.5072 1 28.9255 1 24.5072H0H-1C-1 30.0301 3.47715 34.5072 9 34.5072V33.5072ZM34 24.5072H33C33 28.9255 29.4183 32.5072 25 32.5072V33.5072V34.5072C30.5228 34.5072 35 30.0301 35 24.5072H34ZM25 0V1C29.4183 1 33 4.58172 33 9H34H35C35 3.47715 30.5228 -1 25 -1V0ZM9 0V-1C3.47715 -1 -1 3.47715 -1 9H0H1C1 4.58172 4.58172 1 9 1V0Z" fill="#D8E2F8" mask="url(#path-1-inside-1_1_4412)"/>
<path d="M19.8337 22.2224H14.167V23.1669C14.167 24.7317 15.4355 26.0002 17.0003 26.0002C18.5651 26.0002 19.8337 24.7317 19.8337 23.1669V22.2224Z" fill="#B1B7C1" stroke="white" stroke-linecap="round" stroke-linejoin="round"/>
<path d="M10.3888 22.2222H23.611C24.1326 22.2222 24.5554 21.7994 24.5554 21.2778V20.7245C24.5554 20.4741 24.4559 20.2338 24.2788 20.0567L23.7964 19.5742C23.6777 19.4556 23.611 19.2946 23.611 19.1267V15.6111C23.611 11.9599 20.6511 8.99999 16.9999 9C13.3487 9.00001 10.3888 11.9599 10.3888 15.6111V19.1267C10.3888 19.2946 10.3221 19.4556 10.2034 19.5743L9.72096 20.0567C9.54384 20.2338 9.44434 20.4741 9.44434 20.7246V21.2778C9.44434 21.7994 9.86718 22.2222 10.3888 22.2222Z" fill="#B1B7C1" stroke="white" stroke-linecap="round" stroke-linejoin="round"/>
</svg>
