<svg width="8" height="12" viewBox="0 0 8 12" fill="none" xmlns="http://www.w3.org/2000/svg">
<path d="M5.97567 2.52003C5.61567 2.52003 5.32767 2.41203 5.11167 2.19603C4.90767 1.98003 4.80567 1.66803 4.80567 1.26003C4.80567 0.876031 4.90767 0.570031 5.11167 0.342031C5.31567 0.11403 5.60367 3.016e-05 5.97567 3.016e-05C6.32367 3.016e-05 6.59967 0.10803 6.80367 0.32403C7.01967 0.54003 7.12767 0.852031 7.12767 1.26003C7.12767 1.65603 7.01967 1.96803 6.80367 2.19603C6.59967 2.41203 6.32367 2.52003 5.97567 2.52003ZM1.16967 2.52003C0.809672 2.52003 0.521672 2.41203 0.305672 2.19603C0.101672 1.98003 -0.000327945 1.66803 -0.000327945 1.26003C-0.000327945 0.876031 0.101672 0.570031 0.305672 0.342031C0.509672 0.11403 0.797672 3.016e-05 1.16967 3.016e-05C1.51767 3.016e-05 1.79367 0.10803 1.99767 0.32403C2.21367 0.54003 2.32167 0.852031 2.32167 1.26003C2.32167 1.65603 2.21367 1.96803 1.99767 2.19603C1.79367 2.41203 1.51767 2.52003 1.16967 2.52003ZM1.16967 7.02003C0.809672 7.02003 0.521672 6.91203 0.305672 6.69603C0.101672 6.48003 -0.000327945 6.16803 -0.000327945 5.76003C-0.000327945 5.37603 0.101672 5.07003 0.305672 4.84203C0.509672 4.61403 0.797672 4.50003 1.16967 4.50003C1.51767 4.50003 1.79367 4.60803 1.99767 4.82403C2.21367 5.04003 2.32167 5.35203 2.32167 5.76003C2.32167 6.15603 2.21367 6.46803 1.99767 6.69603C1.79367 6.91203 1.51767 7.02003 1.16967 7.02003ZM5.97567 7.02003C5.61567 7.02003 5.32767 6.91203 5.11167 6.69603C4.90767 6.48003 4.80567 6.16803 4.80567 5.76003C4.80567 5.37603 4.90767 5.07003 5.11167 4.84203C5.31567 4.61403 5.60367 4.50003 5.97567 4.50003C6.32367 4.50003 6.59967 4.60803 6.80367 4.82403C7.01967 5.04003 7.12767 5.35203 7.12767 5.76003C7.12767 6.15603 7.01967 6.46803 6.80367 6.69603C6.59967 6.91203 6.32367 7.02003 5.97567 7.02003ZM1.16967 11.52C0.809672 11.52 0.521672 11.412 0.305672 11.196C0.101672 10.98 -0.000327945 10.668 -0.000327945 10.26C-0.000327945 9.87603 0.101672 9.57003 0.305672 9.34203C0.509672 9.11403 0.797672 9.00003 1.16967 9.00003C1.51767 9.00003 1.79367 9.10803 1.99767 9.32403C2.21367 9.54003 2.32167 9.85203 2.32167 10.26C2.32167 10.656 2.21367 10.968 1.99767 11.196C1.79367 11.412 1.51767 11.52 1.16967 11.52ZM5.97567 11.52C5.61567 11.52 5.32767 11.412 5.11167 11.196C4.90767 10.98 4.80567 10.668 4.80567 10.26C4.80567 9.87603 4.90767 9.57003 5.11167 9.34203C5.31567 9.11403 5.60367 9.00003 5.97567 9.00003C6.32367 9.00003 6.59967 9.10803 6.80367 9.32403C7.01967 9.54003 7.12767 9.85203 7.12767 10.26C7.12767 10.656 7.01967 10.968 6.80367 11.196C6.59967 11.412 6.32367 11.52 5.97567 11.52Z" fill="black" fill-opacity="0.25"/>
</svg>
