<svg width="22" height="32" viewBox="0 0 22 32" fill="none" xmlns="http://www.w3.org/2000/svg">
<path d="M15.2197 7C17.2179 7 19.0181 8.11923 20.0674 9.90039C21.3319 12.0467 21.2887 14.7386 20.0684 17.082C18.3568 20.3691 14.6375 23.1622 12.6787 24.4844H12.6777C12.1722 24.825 11.589 25 11 25C10.411 25 9.82786 24.825 9.32227 24.4844H9.32129C7.42262 23.2033 3.87369 20.5422 2.09766 17.3887L1.93164 17.082C0.712363 14.7391 0.667121 12.0469 1.93164 9.90039L1.93262 9.89941C2.98236 8.12022 4.78176 7 6.78027 7C8.78604 7.00013 10.1402 7.90281 11 8.83203C11.8598 7.90282 13.2139 7.00004 15.2197 7Z" stroke="#ADADAD" stroke-width="2"/>
</svg>
