<svg width="20" height="32" viewBox="0 0 20 32" fill="none" xmlns="http://www.w3.org/2000/svg">
<path d="M14.2197 7.5C16.0227 7.5 17.6678 8.50944 18.6367 10.1543C19.8023 12.1328 19.7766 14.6402 18.625 16.8516C16.9773 20.0158 13.3563 22.7478 11.3984 24.0693V24.0703C10.9755 24.3552 10.4895 24.5 10 24.5C9.51051 24.5 9.02448 24.3552 8.60156 24.0703V24.0693C6.64275 22.7477 3.02278 20.0158 1.375 16.8516C0.22437 14.6405 0.196792 12.1329 1.3623 10.1543L1.36328 10.1533C2.33289 8.51005 3.97718 7.5 5.78027 7.5C7.92114 7.50015 9.24822 8.6217 9.99902 9.60742C10.7498 8.62146 12.0781 7.50004 14.2197 7.5Z" fill="#014D9D" stroke="#014D9D"/>
</svg>
