<svg width="16" height="16" viewBox="0 0 16 16" fill="none" xmlns="http://www.w3.org/2000/svg">
<path d="M15.04 8.16675C15.04 7.64675 14.9933 7.14675 14.9067 6.66675H8V9.50675H11.9467C11.7733 10.4201 11.2533 11.1934 10.4733 11.7134V13.5601H12.8533C14.24 12.2801 15.04 10.4001 15.04 8.16675Z" fill="#4285F4"/>
<path d="M7.99979 15.3332C9.97979 15.3332 11.6398 14.6799 12.8531 13.5599L10.4731 11.7132C9.81979 12.1532 8.98646 12.4199 7.99979 12.4199C6.09312 12.4199 4.47313 11.1332 3.89313 9.3999H1.45312V11.2932C2.65979 13.6866 5.13312 15.3332 7.99979 15.3332Z" fill="#34A853"/>
<path d="M3.89366 9.39338C3.74699 8.95338 3.66033 8.48671 3.66033 8.00005C3.66033 7.51338 3.74699 7.04671 3.89366 6.60671V4.71338H1.45366C0.953659 5.70005 0.666992 6.81338 0.666992 8.00005C0.666992 9.18671 0.953659 10.3 1.45366 11.2867L3.35366 9.80671L3.89366 9.39338Z" fill="#FBBC05"/>
<path d="M7.99979 3.58675C9.07979 3.58675 10.0398 3.96008 10.8065 4.68008L12.9065 2.58008C11.6331 1.39341 9.97979 0.666748 7.99979 0.666748C5.13312 0.666748 2.65979 2.31341 1.45312 4.71342L3.89313 6.60675C4.47313 4.87341 6.09312 3.58675 7.99979 3.58675Z" fill="#EA4335"/>
</svg>
