<svg width="24" height="32" viewBox="0 0 24 32" fill="none" xmlns="http://www.w3.org/2000/svg">
<path fill-rule="evenodd" clip-rule="evenodd" d="M21 14.8332V23.5004C21 24.3288 20.3284 25.0004 19.5 25.0004H15.75C14.9216 25.0004 14.25 24.3288 14.25 23.5004V19.7504C14.25 19.3361 13.9142 19.0004 13.5 19.0004H10.5C10.0858 19.0004 9.75 19.3361 9.75 19.7504V23.5004C9.75 24.3288 9.07843 25.0004 8.25 25.0004H4.5C3.67157 25.0004 3 24.3288 3 23.5004V14.8332C2.99994 14.4134 3.17573 14.0129 3.48469 13.7288L10.9847 6.65255L10.995 6.64223C11.5672 6.12186 12.4412 6.12186 13.0134 6.64223C13.0166 6.6459 13.0201 6.64935 13.0238 6.65255L20.5238 13.7288C20.8296 14.0144 21.0022 14.4147 21 14.8332Z" stroke="#AAAAAA" stroke-width="2"/>
</svg>
