<svg width="16" height="16" viewBox="0 0 16 16" fill="none" xmlns="http://www.w3.org/2000/svg">
<g clip-path="url(#clip0_1_2919)">
<path d="M16 14.75C16 15.4404 15.4404 16 14.75 16H1.25C0.559625 16 0 15.4404 0 14.75V1.25C0 0.559625 0.559625 0 1.25 0H14.75C15.4404 0 16 0.559625 16 1.25V14.75Z" fill="#FFE812"/>
<path d="M7.9502 3.5C4.91261 3.5 2.4502 5.4127 2.4502 7.7721C2.4502 9.2975 3.47965 10.636 5.02821 11.3918C4.94397 11.678 4.48683 13.2331 4.46864 13.3553C4.46864 13.3553 4.4577 13.4471 4.51804 13.4821C4.57838 13.5171 4.64935 13.4899 4.64935 13.4899C4.82239 13.4661 6.65595 12.1973 6.97331 11.977C7.29035 12.0212 7.61681 12.0442 7.9502 12.0442C10.9878 12.0442 13.4502 10.1315 13.4502 7.7721C13.4502 5.4127 10.9878 3.5 7.9502 3.5Z" fill="black"/>
<path d="M4.8653 9.33333C4.68387 9.33333 4.53633 9.19627 4.53633 9.02773V7.12667H4.02302C3.845 7.12667 3.7002 6.98608 3.7002 6.81333C3.7002 6.64059 3.84505 6.5 4.02302 6.5H5.70757C5.8856 6.5 6.0304 6.64059 6.0304 6.81333C6.0304 6.98608 5.88554 7.12667 5.70757 7.12667H5.19427V9.02773C5.19427 9.19627 5.04672 9.33333 4.8653 9.33333ZM7.74993 9.32917C7.61275 9.32917 7.5078 9.27499 7.47617 9.18784L7.31327 8.77301L6.31013 8.77296L6.14713 9.18805C6.1156 9.27504 6.01072 9.32917 5.87354 9.32917C5.80138 9.32924 5.73005 9.31418 5.66442 9.28501C5.57373 9.24432 5.48656 9.13243 5.58645 8.83061L6.37335 6.81589C6.42878 6.66267 6.59716 6.5048 6.81143 6.50005C7.0263 6.50475 7.19468 6.66267 7.25022 6.81621L8.03679 8.83003C8.1369 9.13253 8.04973 9.24448 7.95904 9.28507C7.89339 9.31418 7.82208 9.32923 7.74993 9.32917ZM7.14029 8.20619L6.8117 7.29819L6.48312 8.20619H7.14029ZM8.56621 9.28667C8.39235 9.28667 8.25095 9.15504 8.25095 8.99333V6.82C8.25095 6.64352 8.40162 6.5 8.58677 6.5C8.77193 6.5 8.92259 6.64352 8.92259 6.82V8.7H9.62166C9.79552 8.7 9.93692 8.83163 9.93692 8.99333C9.93692 9.15504 9.79552 9.28667 9.62166 9.28667H8.56621ZM10.3939 9.32917C10.2124 9.32917 10.0649 9.18565 10.0649 9.00917V6.82C10.0649 6.64352 10.2124 6.5 10.3939 6.5C10.5753 6.5 10.7228 6.64352 10.7228 6.82V7.50779L11.6407 6.61499C11.6879 6.56907 11.7527 6.54379 11.8231 6.54379C11.9053 6.54379 11.9877 6.57824 12.0495 6.63829C12.1071 6.69429 12.1415 6.76635 12.1462 6.84117C12.151 6.91664 12.1252 6.98581 12.0736 7.036L11.324 7.76512L12.1337 8.80864C12.1599 8.84212 12.1789 8.88031 12.1898 8.92101C12.2006 8.96171 12.203 9.00409 12.1969 9.04571C12.191 9.08735 12.1767 9.12744 12.1548 9.16367C12.1329 9.1999 12.1038 9.23153 12.0692 9.25675C12.0124 9.29881 11.9428 9.3215 11.8714 9.32133C11.8204 9.32156 11.7701 9.31018 11.7244 9.28809C11.6788 9.266 11.6391 9.23382 11.6086 9.19413L10.8371 8.19979L10.7229 8.31083V9.00901C10.7228 9.09389 10.6881 9.17525 10.6264 9.23527C10.5648 9.29529 10.4811 9.32906 10.3939 9.32917Z" fill="#FFE812"/>
</g>
<defs>
<clipPath id="clip0_1_2919">
<rect width="16" height="16" rx="3" fill="white"/>
</clipPath>
</defs>
</svg>
