<svg width="44" height="44" viewBox="0 0 44 44" fill="none" xmlns="http://www.w3.org/2000/svg">
<mask id="path-1-inside-1_1_2571" fill="white">
<path d="M0 12C0 5.37258 5.37258 0 12 0H32C38.6274 0 44 5.37258 44 12V32C44 38.6274 38.6274 44 32 44H12C5.37258 44 0 38.6274 0 32V12Z"/>
</mask>
<path d="M0 12C0 5.37258 5.37258 0 12 0H32C38.6274 0 44 5.37258 44 12V32C44 38.6274 38.6274 44 32 44H12C5.37258 44 0 38.6274 0 32V12Z" fill="#EFF1F8"/>
<path d="M12 0V1H32V0V-1H12V0ZM44 12H43V32H44H45V12H44ZM32 44V43H12V44V45H32V44ZM0 32H1V12H0H-1V32H0ZM12 44V43C5.92487 43 1 38.0751 1 32H0H-1C-1 39.1797 4.8203 45 12 45V44ZM44 32H43C43 38.0751 38.0751 43 32 43V44V45C39.1797 45 45 39.1797 45 32H44ZM32 0V1C38.0751 1 43 5.92487 43 12H44H45C45 4.8203 39.1797 -1 32 -1V0ZM12 0V-1C4.8203 -1 -1 4.8203 -1 12H0H1C1 5.92487 5.92487 1 12 1V0Z" fill="#D8E2F8" mask="url(#path-1-inside-1_1_2571)"/>
<path d="M27.75 21.1667H17.25C16.4216 21.1667 15.75 21.9129 15.75 22.8334V28.6667C15.75 29.5872 16.4216 30.3334 17.25 30.3334H27.75C28.5784 30.3334 29.25 29.5872 29.25 28.6667V22.8334C29.25 21.9129 28.5784 21.1667 27.75 21.1667Z" stroke="#9399B0" stroke-width="1.5"/>
<path d="M18.75 21.1667V17.8334C18.75 16.7283 19.1451 15.6685 19.8483 14.8871C20.5516 14.1057 21.5054 13.6667 22.5 13.6667C23.4946 13.6667 24.4484 14.1057 25.1516 14.8871C25.8549 15.6685 26.25 16.7283 26.25 17.8334V21.1667" stroke="#9399B0" stroke-width="1.5"/>
</svg>
