<svg width="348" height="37" viewBox="0 0 348 37" fill="none" xmlns="http://www.w3.org/2000/svg">
<rect width="348" height="37" rx="8" fill="#014D9D"/>
<path d="M154.514 22.4875H165.002V23.8375H154.514V22.4875ZM158.914 20.2875H160.564V23.025H158.914V20.2875ZM155.702 14.275H163.814V18.1375H157.364V20.075H155.714V16.8375H162.164V15.6H155.702V14.275ZM155.714 19.425H164.077V20.75H155.714V19.425ZM167.088 14.5875H174.413V15.9125H167.088V14.5875ZM166.013 22.25H176.488V23.6H166.013V22.25ZM173.538 14.5875H175.201V15.9625C175.201 16.5042 175.193 17.0542 175.176 17.6125C175.168 18.1708 175.134 18.7667 175.076 19.4C175.026 20.0333 174.926 20.75 174.776 21.55L173.113 21.4C173.263 20.6583 173.363 19.975 173.413 19.35C173.472 18.725 173.505 18.1375 173.513 17.5875C173.53 17.0292 173.538 16.4875 173.538 15.9625V14.5875ZM180.613 14.325C181.204 14.325 181.725 14.4958 182.175 14.8375C182.633 15.1708 182.992 15.65 183.25 16.275C183.517 16.8917 183.65 17.6208 183.65 18.4625C183.65 19.3125 183.517 20.05 183.25 20.675C182.992 21.2917 182.633 21.7708 182.175 22.1125C181.725 22.4458 181.204 22.6125 180.613 22.6125C180.021 22.6125 179.496 22.4458 179.038 22.1125C178.579 21.7708 178.217 21.2917 177.95 20.675C177.692 20.05 177.563 19.3125 177.563 18.4625C177.563 17.6208 177.692 16.8917 177.95 16.275C178.217 15.65 178.579 15.1708 179.038 14.8375C179.496 14.4958 180.021 14.325 180.613 14.325ZM180.613 15.8375C180.329 15.8375 180.075 15.9375 179.85 16.1375C179.633 16.3375 179.463 16.6333 179.338 17.025C179.221 17.4083 179.163 17.8875 179.163 18.4625C179.163 19.0292 179.221 19.5125 179.338 19.9125C179.463 20.3042 179.633 20.6 179.85 20.8C180.075 21 180.329 21.1 180.613 21.1C180.896 21.1 181.146 21 181.363 20.8C181.579 20.6 181.746 20.3042 181.863 19.9125C181.988 19.5125 182.05 19.0292 182.05 18.4625C182.05 17.8875 181.988 17.4083 181.863 17.025C181.746 16.6333 181.579 16.3375 181.363 16.1375C181.146 15.9375 180.896 15.8375 180.613 15.8375ZM184.9 13.5375H186.575V25.1125H184.9V13.5375ZM186.213 17.9H188.25V19.2625H186.213V17.9ZM188.999 18.6125H199.487V19.9375H188.999V18.6125ZM193.387 19.2H195.037V21.025H193.387V19.2ZM193.362 21.4875H194.774V21.7C194.774 22.1167 194.674 22.5167 194.474 22.9C194.282 23.275 193.995 23.6125 193.612 23.9125C193.228 24.2125 192.749 24.4625 192.174 24.6625C191.607 24.8708 190.953 25.0083 190.212 25.075L189.674 23.825C190.307 23.7667 190.857 23.6667 191.324 23.525C191.791 23.375 192.174 23.2042 192.474 23.0125C192.774 22.8125 192.995 22.6 193.137 22.375C193.287 22.1417 193.362 21.9167 193.362 21.7V21.4875ZM193.649 21.4875H195.062V21.7C195.062 21.9333 195.132 22.1667 195.274 22.4C195.416 22.625 195.637 22.8375 195.937 23.0375C196.245 23.2292 196.628 23.3958 197.087 23.5375C197.553 23.6708 198.103 23.7667 198.737 23.825L198.212 25.075C197.478 25 196.824 24.8625 196.249 24.6625C195.682 24.4708 195.207 24.2292 194.824 23.9375C194.441 23.6375 194.149 23.3 193.949 22.925C193.749 22.5417 193.649 22.1333 193.649 21.7V21.4875ZM194.237 13.65C195.095 13.65 195.837 13.7375 196.462 13.9125C197.095 14.0875 197.582 14.3375 197.924 14.6625C198.266 14.9875 198.437 15.3792 198.437 15.8375C198.437 16.2958 198.266 16.6875 197.924 17.0125C197.582 17.3375 197.095 17.5875 196.462 17.7625C195.837 17.9375 195.095 18.025 194.237 18.025C193.387 18.025 192.645 17.9375 192.012 17.7625C191.387 17.5875 190.903 17.3375 190.562 17.0125C190.22 16.6875 190.049 16.2958 190.049 15.8375C190.049 15.3792 190.22 14.9875 190.562 14.6625C190.903 14.3375 191.387 14.0875 192.012 13.9125C192.645 13.7375 193.387 13.65 194.237 13.65ZM194.237 14.9C193.712 14.9 193.262 14.9333 192.887 15C192.52 15.0667 192.241 15.1708 192.049 15.3125C191.866 15.4542 191.774 15.6292 191.774 15.8375C191.774 16.0458 191.866 16.2208 192.049 16.3625C192.241 16.5042 192.52 16.6083 192.887 16.675C193.262 16.7417 193.712 16.775 194.237 16.775C194.77 16.775 195.22 16.7417 195.587 16.675C195.953 16.6083 196.232 16.5042 196.424 16.3625C196.616 16.2208 196.712 16.0458 196.712 15.8375C196.712 15.6292 196.616 15.4542 196.424 15.3125C196.232 15.1708 195.953 15.0667 195.587 15C195.22 14.9333 194.77 14.9 194.237 14.9Z" fill="white"/>
<g clip-path="url(#clip0_1_9220)">
<path d="M143.5 23.5H141.5C141.235 23.5 140.98 23.3946 140.793 23.2071C140.605 23.0196 140.5 22.7652 140.5 22.5V15.5C140.5 15.2348 140.605 14.9804 140.793 14.7929C140.98 14.6054 141.235 14.5 141.5 14.5H143.5" stroke="white" stroke-width="1.375"/>
<path d="M147 21.5L149.5 19L147 16.5" stroke="white" stroke-width="1.375"/>
<path d="M149.5 19H143.5" stroke="white" stroke-width="1.375"/>
</g>
<defs>
<clipPath id="clip0_1_9220">
<rect width="12" height="12" fill="white" transform="translate(139 13)"/>
</clipPath>
</defs>
</svg>
