<svg width="34" height="34" viewBox="0 0 34 34" fill="none" xmlns="http://www.w3.org/2000/svg">
<mask id="path-1-inside-1_438_196" fill="white">
<path d="M0 9C0 4.02944 4.02944 0 9 0H25C29.9706 0 34 4.02944 34 9V24.5072C34 29.4778 29.9706 33.5072 25 33.5072H9C4.02944 33.5072 0 29.4778 0 24.5072V9Z"/>
</mask>
<path d="M9 0V1H25V0V-1H9V0ZM34 9H33V24.5072H34H35V9H34ZM25 33.5072V32.5072H9V33.5072V34.5072H25V33.5072ZM0 24.5072H1V9H0H-1V24.5072H0ZM9 33.5072V32.5072C4.58172 32.5072 1 28.9255 1 24.5072H0H-1C-1 30.0301 3.47715 34.5072 9 34.5072V33.5072ZM34 24.5072H33C33 28.9255 29.4183 32.5072 25 32.5072V33.5072V34.5072C30.5228 34.5072 35 30.0301 35 24.5072H34ZM25 0V1C29.4183 1 33 4.58172 33 9H34H35C35 3.47715 30.5228 -1 25 -1V0ZM9 0V-1C3.47715 -1 -1 3.47715 -1 9H0H1C1 4.58172 4.58172 1 9 1V0Z" fill="#D8E2F8" mask="url(#path-1-inside-1_438_196)"/>
<g clip-path="url(#clip0_438_196)">
<path d="M23.9469 22.626L21.4356 20.1147C22.2423 19.0347 22.7263 17.7007 22.7263 16.2527C22.7263 12.6834 19.8223 9.78003 16.2529 9.78003C12.6836 9.78003 9.78027 12.6834 9.78027 16.2527C9.78027 19.822 12.6836 22.726 16.2529 22.726C17.7009 22.726 19.0356 22.242 20.1149 21.4354L22.6263 23.9467C22.8083 24.1287 23.0476 24.22 23.2863 24.22C23.5249 24.22 23.7643 24.1287 23.9463 23.9467C24.3109 23.582 24.3109 22.9907 23.9463 22.6267L23.9469 22.626ZM11.6469 16.2527C11.6469 13.7127 13.7136 11.6467 16.2529 11.6467C18.7923 11.6467 20.8589 13.7134 20.8589 16.2527C20.8589 18.792 18.7923 20.8587 16.2529 20.8587C13.7136 20.8587 11.6469 18.792 11.6469 16.2527Z" fill="#8F959E"/>
</g>
<defs>
<clipPath id="clip0_438_196">
<rect width="16" height="16" fill="white" transform="translate(9 9)"/>
</clipPath>
</defs>
</svg>
