<svg width="14" height="14" viewBox="0 0 14 14" fill="none" xmlns="http://www.w3.org/2000/svg">
<path d="M13.0785 11.9227L10.881 9.72533C11.5869 8.78033 12.0104 7.61308 12.0104 6.34608C12.0104 3.22291 9.46937 0.682495 6.3462 0.682495C3.22303 0.682495 0.682617 3.22291 0.682617 6.34608C0.682617 9.46924 3.22303 12.0102 6.3462 12.0102C7.6132 12.0102 8.78103 11.5867 9.72545 10.8809L11.9229 13.0783C12.0821 13.2376 12.2915 13.3175 12.5004 13.3175C12.7092 13.3175 12.9186 13.2376 13.0779 13.0783C13.397 12.7592 13.397 12.2418 13.0779 11.9233L13.0785 11.9227ZM2.31595 6.34608C2.31595 4.12358 4.12428 2.31583 6.3462 2.31583C8.56812 2.31583 10.3765 4.12416 10.3765 6.34608C10.3765 8.56799 8.56812 10.3763 6.3462 10.3763C4.12428 10.3763 2.31595 8.56799 2.31595 6.34608Z" fill="#8F959E"/>
</svg>
