<svg width="32" height="32" viewBox="0 0 32 32" fill="none" xmlns="http://www.w3.org/2000/svg">
<rect width="32" height="32" rx="8" fill="#3B6EF0" fill-opacity="0.1"/>
<path d="M19.1667 21.0557H13.5V22.0001C13.5 23.5649 14.7685 24.8334 16.3333 24.8334C17.8981 24.8334 19.1667 23.5649 19.1667 22.0001V21.0557Z" fill="#B1B7C1" stroke="#E2E9FA" stroke-linecap="round" stroke-linejoin="round"/>
<path d="M9.72179 21.0557H22.944C23.4656 21.0557 23.8885 20.6329 23.8885 20.1113V19.558C23.8885 19.3076 23.789 19.0673 23.6118 18.8902L23.1294 18.4077C23.0107 18.2891 22.944 18.1281 22.944 17.9602V14.4446C22.944 10.7934 19.9841 7.83349 16.3329 7.8335C12.6817 7.83351 9.72179 10.7934 9.72179 14.4446V17.9602C9.72179 18.1281 9.65511 18.2891 9.53641 18.4078L9.05397 18.8902C8.87685 19.0673 8.77734 19.3076 8.77734 19.558V20.1113C8.77734 20.6329 9.20019 21.0557 9.72179 21.0557Z" fill="#B1B7C1" stroke="#E2E9FA" stroke-linecap="round" stroke-linejoin="round"/>
</svg>
