<svg width="28" height="32" viewBox="0 0 28 32" fill="none" xmlns="http://www.w3.org/2000/svg">
<path d="M17.5 21.834H10.5V23.0007C10.5 24.9336 12.067 26.5007 14 26.5007C15.933 26.5007 17.5 24.9336 17.5 23.0007V21.834Z" fill="#014D9D" stroke="white" stroke-linecap="round" stroke-linejoin="round"/>
<path d="M5.83366 21.8334H22.167C22.8113 21.8334 23.3337 21.311 23.3337 20.6667V19.9833C23.3337 19.6738 23.2107 19.3771 22.992 19.1583L22.396 18.5623C22.2494 18.4157 22.167 18.2168 22.167 18.0095V13.6667C22.167 9.15633 18.5106 5.49999 14.0003 5.5C9.48999 5.50001 5.83366 9.15635 5.83366 13.6667V18.0095C5.83366 18.2169 5.75129 18.4157 5.60466 18.5624L5.0087 19.1583C4.78991 19.3771 4.66699 19.6739 4.66699 19.9833V20.6667C4.66699 21.311 5.18933 21.8334 5.83366 21.8334Z" fill="#014D9D" stroke="white" stroke-linecap="round" stroke-linejoin="round"/>
</svg>
